<mxfile host="app.diagrams.net" modified="2021-03-13T05:21:56.158Z" agent="5.0 (Windows NT 10.0; Win64; x64) AppleWebKit/537.36 (KHTML, like Gecko) Chrome/89.0.4389.82 Safari/537.36" etag="8GEEV2S03AHNCb4_VugZ" version="14.4.7" type="github">
  <diagram id="VS10bm0p1uZS2G8Uh8b_" name="Page-1">
    <mxGraphModel dx="868" dy="481" grid="1" gridSize="10" guides="1" tooltips="1" connect="1" arrows="1" fold="1" page="1" pageScale="1" pageWidth="827" pageHeight="1169" math="0" shadow="0">
      <root>
        <mxCell id="0" />
        <mxCell id="1" parent="0" />
        <mxCell id="tFwBW-co8xsoxJlNYOuC-1" value="Product" style="rounded=0;whiteSpace=wrap;html=1;" parent="1" vertex="1">
          <mxGeometry x="390" y="330" width="120" height="60" as="geometry" />
        </mxCell>
        <mxCell id="tFwBW-co8xsoxJlNYOuC-2" value="Customer" style="rounded=0;whiteSpace=wrap;html=1;" parent="1" vertex="1">
          <mxGeometry x="130" y="360" width="120" height="60" as="geometry" />
        </mxCell>
        <mxCell id="tFwBW-co8xsoxJlNYOuC-3" value="Cart" style="rounded=0;whiteSpace=wrap;html=1;" parent="1" vertex="1">
          <mxGeometry x="120" y="170" width="120" height="60" as="geometry" />
        </mxCell>
        <mxCell id="tFwBW-co8xsoxJlNYOuC-5" value="Admin" style="rounded=0;whiteSpace=wrap;html=1;" parent="1" vertex="1">
          <mxGeometry x="630" y="210" width="120" height="60" as="geometry" />
        </mxCell>
        <mxCell id="tFwBW-co8xsoxJlNYOuC-11" style="edgeStyle=orthogonalEdgeStyle;rounded=0;orthogonalLoop=1;jettySize=auto;html=1;exitX=0.5;exitY=1;exitDx=0;exitDy=0;" parent="1" source="tFwBW-co8xsoxJlNYOuC-6" target="tFwBW-co8xsoxJlNYOuC-5" edge="1">
          <mxGeometry relative="1" as="geometry" />
        </mxCell>
        <mxCell id="tFwBW-co8xsoxJlNYOuC-6" value="ID" style="ellipse;whiteSpace=wrap;html=1;" parent="1" vertex="1">
          <mxGeometry x="670" y="130" width="60" height="30" as="geometry" />
        </mxCell>
        <mxCell id="tFwBW-co8xsoxJlNYOuC-12" style="edgeStyle=orthogonalEdgeStyle;rounded=0;orthogonalLoop=1;jettySize=auto;html=1;exitX=0.5;exitY=1;exitDx=0;exitDy=0;entryX=0.833;entryY=-0.067;entryDx=0;entryDy=0;entryPerimeter=0;" parent="1" source="tFwBW-co8xsoxJlNYOuC-7" target="tFwBW-co8xsoxJlNYOuC-5" edge="1">
          <mxGeometry relative="1" as="geometry" />
        </mxCell>
        <mxCell id="tFwBW-co8xsoxJlNYOuC-7" value="Name" style="ellipse;whiteSpace=wrap;html=1;" parent="1" vertex="1">
          <mxGeometry x="740" y="130" width="60" height="30" as="geometry" />
        </mxCell>
        <mxCell id="tFwBW-co8xsoxJlNYOuC-10" style="edgeStyle=orthogonalEdgeStyle;rounded=0;orthogonalLoop=1;jettySize=auto;html=1;exitX=0.5;exitY=1;exitDx=0;exitDy=0;entryX=0.25;entryY=0;entryDx=0;entryDy=0;" parent="1" source="tFwBW-co8xsoxJlNYOuC-8" target="tFwBW-co8xsoxJlNYOuC-5" edge="1">
          <mxGeometry relative="1" as="geometry" />
        </mxCell>
        <mxCell id="tFwBW-co8xsoxJlNYOuC-8" value="Password" style="ellipse;whiteSpace=wrap;html=1;" parent="1" vertex="1">
          <mxGeometry x="600" y="130" width="60" height="30" as="geometry" />
        </mxCell>
        <mxCell id="tFwBW-co8xsoxJlNYOuC-16" style="edgeStyle=orthogonalEdgeStyle;rounded=0;orthogonalLoop=1;jettySize=auto;html=1;exitX=0.5;exitY=0;exitDx=0;exitDy=0;entryX=0.9;entryY=1.05;entryDx=0;entryDy=0;entryPerimeter=0;" parent="1" source="tFwBW-co8xsoxJlNYOuC-15" target="tFwBW-co8xsoxJlNYOuC-1" edge="1">
          <mxGeometry relative="1" as="geometry" />
        </mxCell>
        <mxCell id="tFwBW-co8xsoxJlNYOuC-15" value="Code" style="ellipse;whiteSpace=wrap;html=1;" parent="1" vertex="1">
          <mxGeometry x="470" y="450" width="60" height="30" as="geometry" />
        </mxCell>
        <mxCell id="tFwBW-co8xsoxJlNYOuC-18" value="" style="edgeStyle=orthogonalEdgeStyle;rounded=0;orthogonalLoop=1;jettySize=auto;html=1;" parent="1" source="tFwBW-co8xsoxJlNYOuC-17" target="tFwBW-co8xsoxJlNYOuC-1" edge="1">
          <mxGeometry relative="1" as="geometry" />
        </mxCell>
        <mxCell id="tFwBW-co8xsoxJlNYOuC-17" value="category" style="ellipse;whiteSpace=wrap;html=1;" parent="1" vertex="1">
          <mxGeometry x="400" y="450" width="60" height="30" as="geometry" />
        </mxCell>
        <mxCell id="tFwBW-co8xsoxJlNYOuC-20" style="edgeStyle=orthogonalEdgeStyle;rounded=0;orthogonalLoop=1;jettySize=auto;html=1;exitX=0.5;exitY=0;exitDx=0;exitDy=0;entryX=1;entryY=0.5;entryDx=0;entryDy=0;" parent="1" source="tFwBW-co8xsoxJlNYOuC-19" target="tFwBW-co8xsoxJlNYOuC-1" edge="1">
          <mxGeometry relative="1" as="geometry" />
        </mxCell>
        <mxCell id="tFwBW-co8xsoxJlNYOuC-19" value="Name" style="ellipse;whiteSpace=wrap;html=1;" parent="1" vertex="1">
          <mxGeometry x="550" y="450" width="60" height="30" as="geometry" />
        </mxCell>
        <mxCell id="tFwBW-co8xsoxJlNYOuC-23" style="edgeStyle=orthogonalEdgeStyle;rounded=0;orthogonalLoop=1;jettySize=auto;html=1;exitX=0.5;exitY=0;exitDx=0;exitDy=0;entryX=0;entryY=0.75;entryDx=0;entryDy=0;" parent="1" source="tFwBW-co8xsoxJlNYOuC-21" target="tFwBW-co8xsoxJlNYOuC-1" edge="1">
          <mxGeometry relative="1" as="geometry" />
        </mxCell>
        <mxCell id="tFwBW-co8xsoxJlNYOuC-21" value="ID" style="ellipse;whiteSpace=wrap;html=1;" parent="1" vertex="1">
          <mxGeometry x="330" y="450" width="60" height="30" as="geometry" />
        </mxCell>
        <mxCell id="tFwBW-co8xsoxJlNYOuC-26" style="edgeStyle=orthogonalEdgeStyle;rounded=0;orthogonalLoop=1;jettySize=auto;html=1;exitX=0.5;exitY=0;exitDx=0;exitDy=0;entryX=0.992;entryY=0.15;entryDx=0;entryDy=0;entryPerimeter=0;" parent="1" source="tFwBW-co8xsoxJlNYOuC-22" target="tFwBW-co8xsoxJlNYOuC-1" edge="1">
          <mxGeometry relative="1" as="geometry" />
        </mxCell>
        <mxCell id="tFwBW-co8xsoxJlNYOuC-22" value="Description" style="ellipse;whiteSpace=wrap;html=1;" parent="1" vertex="1">
          <mxGeometry x="630" y="450" width="60" height="30" as="geometry" />
        </mxCell>
        <mxCell id="tFwBW-co8xsoxJlNYOuC-29" style="edgeStyle=orthogonalEdgeStyle;rounded=0;orthogonalLoop=1;jettySize=auto;html=1;exitX=0.5;exitY=0;exitDx=0;exitDy=0;entryX=0;entryY=0;entryDx=0;entryDy=0;" parent="1" source="tFwBW-co8xsoxJlNYOuC-28" target="tFwBW-co8xsoxJlNYOuC-1" edge="1">
          <mxGeometry relative="1" as="geometry" />
        </mxCell>
        <mxCell id="tFwBW-co8xsoxJlNYOuC-28" value="Price" style="ellipse;whiteSpace=wrap;html=1;" parent="1" vertex="1">
          <mxGeometry x="270" y="420" width="60" height="30" as="geometry" />
        </mxCell>
        <mxCell id="tFwBW-co8xsoxJlNYOuC-31" style="edgeStyle=orthogonalEdgeStyle;rounded=0;orthogonalLoop=1;jettySize=auto;html=1;exitX=0.5;exitY=0;exitDx=0;exitDy=0;entryX=0.75;entryY=0;entryDx=0;entryDy=0;" parent="1" source="tFwBW-co8xsoxJlNYOuC-30" target="tFwBW-co8xsoxJlNYOuC-1" edge="1">
          <mxGeometry relative="1" as="geometry" />
        </mxCell>
        <mxCell id="tFwBW-co8xsoxJlNYOuC-30" value="Quantity" style="ellipse;whiteSpace=wrap;html=1;" parent="1" vertex="1">
          <mxGeometry x="710" y="430" width="60" height="30" as="geometry" />
        </mxCell>
        <mxCell id="tFwBW-co8xsoxJlNYOuC-33" style="edgeStyle=orthogonalEdgeStyle;rounded=0;orthogonalLoop=1;jettySize=auto;html=1;exitX=0.5;exitY=0;exitDx=0;exitDy=0;entryX=0.25;entryY=0;entryDx=0;entryDy=0;" parent="1" source="tFwBW-co8xsoxJlNYOuC-32" target="tFwBW-co8xsoxJlNYOuC-1" edge="1">
          <mxGeometry relative="1" as="geometry" />
        </mxCell>
        <mxCell id="tFwBW-co8xsoxJlNYOuC-32" value="Image" style="ellipse;whiteSpace=wrap;html=1;" parent="1" vertex="1">
          <mxGeometry x="760" y="390" width="60" height="30" as="geometry" />
        </mxCell>
        <mxCell id="tFwBW-co8xsoxJlNYOuC-35" style="edgeStyle=orthogonalEdgeStyle;rounded=0;orthogonalLoop=1;jettySize=auto;html=1;exitX=0.5;exitY=0;exitDx=0;exitDy=0;entryX=0;entryY=0.5;entryDx=0;entryDy=0;" parent="1" source="tFwBW-co8xsoxJlNYOuC-34" target="tFwBW-co8xsoxJlNYOuC-2" edge="1">
          <mxGeometry relative="1" as="geometry" />
        </mxCell>
        <mxCell id="tFwBW-co8xsoxJlNYOuC-34" value="ID" style="ellipse;whiteSpace=wrap;html=1;" parent="1" vertex="1">
          <mxGeometry x="40" y="470" width="60" height="30" as="geometry" />
        </mxCell>
        <mxCell id="tFwBW-co8xsoxJlNYOuC-39" style="edgeStyle=orthogonalEdgeStyle;rounded=0;orthogonalLoop=1;jettySize=auto;html=1;exitX=0.5;exitY=0;exitDx=0;exitDy=0;entryX=0.917;entryY=1;entryDx=0;entryDy=0;entryPerimeter=0;" parent="1" source="tFwBW-co8xsoxJlNYOuC-36" target="tFwBW-co8xsoxJlNYOuC-2" edge="1">
          <mxGeometry relative="1" as="geometry" />
        </mxCell>
        <mxCell id="tFwBW-co8xsoxJlNYOuC-36" value="Password" style="ellipse;whiteSpace=wrap;html=1;" parent="1" vertex="1">
          <mxGeometry x="210" y="490" width="60" height="30" as="geometry" />
        </mxCell>
        <mxCell id="tFwBW-co8xsoxJlNYOuC-38" style="edgeStyle=orthogonalEdgeStyle;rounded=0;orthogonalLoop=1;jettySize=auto;html=1;exitX=0.5;exitY=0;exitDx=0;exitDy=0;entryX=0.25;entryY=1;entryDx=0;entryDy=0;" parent="1" source="tFwBW-co8xsoxJlNYOuC-37" target="tFwBW-co8xsoxJlNYOuC-2" edge="1">
          <mxGeometry relative="1" as="geometry" />
        </mxCell>
        <mxCell id="tFwBW-co8xsoxJlNYOuC-37" value="UserName" style="ellipse;whiteSpace=wrap;html=1;" parent="1" vertex="1">
          <mxGeometry x="130" y="490" width="60" height="30" as="geometry" />
        </mxCell>
        <mxCell id="tFwBW-co8xsoxJlNYOuC-41" style="edgeStyle=orthogonalEdgeStyle;rounded=0;orthogonalLoop=1;jettySize=auto;html=1;exitX=1;exitY=0.5;exitDx=0;exitDy=0;entryX=0;entryY=0;entryDx=0;entryDy=0;" parent="1" source="tFwBW-co8xsoxJlNYOuC-40" target="tFwBW-co8xsoxJlNYOuC-2" edge="1">
          <mxGeometry relative="1" as="geometry" />
        </mxCell>
        <mxCell id="tFwBW-co8xsoxJlNYOuC-40" value="Image" style="ellipse;whiteSpace=wrap;html=1;" parent="1" vertex="1">
          <mxGeometry x="10" y="330" width="60" height="30" as="geometry" />
        </mxCell>
        <mxCell id="tFwBW-co8xsoxJlNYOuC-43" style="edgeStyle=orthogonalEdgeStyle;rounded=0;orthogonalLoop=1;jettySize=auto;html=1;exitX=0.5;exitY=0;exitDx=0;exitDy=0;entryX=0.583;entryY=1.05;entryDx=0;entryDy=0;entryPerimeter=0;" parent="1" source="tFwBW-co8xsoxJlNYOuC-42" target="tFwBW-co8xsoxJlNYOuC-2" edge="1">
          <mxGeometry relative="1" as="geometry" />
        </mxCell>
        <mxCell id="tFwBW-co8xsoxJlNYOuC-42" value="Email" style="ellipse;whiteSpace=wrap;html=1;" parent="1" vertex="1">
          <mxGeometry x="170" y="540" width="60" height="30" as="geometry" />
        </mxCell>
        <mxCell id="tFwBW-co8xsoxJlNYOuC-45" style="edgeStyle=orthogonalEdgeStyle;rounded=0;orthogonalLoop=1;jettySize=auto;html=1;exitX=0.5;exitY=0;exitDx=0;exitDy=0;entryX=0;entryY=1;entryDx=0;entryDy=0;" parent="1" source="tFwBW-co8xsoxJlNYOuC-44" target="tFwBW-co8xsoxJlNYOuC-2" edge="1">
          <mxGeometry relative="1" as="geometry">
            <Array as="points">
              <mxPoint x="110" y="560" />
              <mxPoint x="120" y="560" />
              <mxPoint x="120" y="490" />
              <mxPoint x="130" y="490" />
            </Array>
          </mxGeometry>
        </mxCell>
        <mxCell id="tFwBW-co8xsoxJlNYOuC-44" value="Address" style="ellipse;whiteSpace=wrap;html=1;" parent="1" vertex="1">
          <mxGeometry x="80" y="555" width="60" height="30" as="geometry" />
        </mxCell>
        <mxCell id="tFwBW-co8xsoxJlNYOuC-47" style="edgeStyle=orthogonalEdgeStyle;rounded=0;orthogonalLoop=1;jettySize=auto;html=1;exitX=0.5;exitY=0;exitDx=0;exitDy=0;entryX=1;entryY=1;entryDx=0;entryDy=0;" parent="1" source="tFwBW-co8xsoxJlNYOuC-46" target="tFwBW-co8xsoxJlNYOuC-2" edge="1">
          <mxGeometry relative="1" as="geometry" />
        </mxCell>
        <mxCell id="tFwBW-co8xsoxJlNYOuC-46" value="Job" style="ellipse;whiteSpace=wrap;html=1;" parent="1" vertex="1">
          <mxGeometry x="270" y="540" width="60" height="30" as="geometry" />
        </mxCell>
        <mxCell id="tFwBW-co8xsoxJlNYOuC-49" style="edgeStyle=orthogonalEdgeStyle;rounded=0;orthogonalLoop=1;jettySize=auto;html=1;exitX=0.5;exitY=0;exitDx=0;exitDy=0;entryX=0;entryY=0.25;entryDx=0;entryDy=0;" parent="1" source="tFwBW-co8xsoxJlNYOuC-48" target="tFwBW-co8xsoxJlNYOuC-2" edge="1">
          <mxGeometry relative="1" as="geometry" />
        </mxCell>
        <mxCell id="tFwBW-co8xsoxJlNYOuC-48" value="CreditINFO" style="ellipse;whiteSpace=wrap;html=1;" parent="1" vertex="1">
          <mxGeometry x="10" y="400" width="60" height="30" as="geometry" />
        </mxCell>
        <mxCell id="tFwBW-co8xsoxJlNYOuC-51" style="edgeStyle=orthogonalEdgeStyle;rounded=0;orthogonalLoop=1;jettySize=auto;html=1;exitX=1;exitY=0.5;exitDx=0;exitDy=0;entryX=0;entryY=0.75;entryDx=0;entryDy=0;" parent="1" source="tFwBW-co8xsoxJlNYOuC-50" target="tFwBW-co8xsoxJlNYOuC-2" edge="1">
          <mxGeometry relative="1" as="geometry" />
        </mxCell>
        <mxCell id="tFwBW-co8xsoxJlNYOuC-50" value="Birthday" style="ellipse;whiteSpace=wrap;html=1;" parent="1" vertex="1">
          <mxGeometry x="10" y="525" width="60" height="30" as="geometry" />
        </mxCell>
        <mxCell id="tFwBW-co8xsoxJlNYOuC-59" style="edgeStyle=orthogonalEdgeStyle;rounded=0;orthogonalLoop=1;jettySize=auto;html=1;exitX=0.5;exitY=1;exitDx=0;exitDy=0;entryX=0.158;entryY=0.033;entryDx=0;entryDy=0;entryPerimeter=0;" parent="1" source="tFwBW-co8xsoxJlNYOuC-95" target="tFwBW-co8xsoxJlNYOuC-3" edge="1">
          <mxGeometry relative="1" as="geometry" />
        </mxCell>
        <mxCell id="tFwBW-co8xsoxJlNYOuC-56" value="UserID" style="ellipse;whiteSpace=wrap;html=1;" parent="1" vertex="1">
          <mxGeometry x="109" y="92" width="60" height="30" as="geometry" />
        </mxCell>
        <mxCell id="tFwBW-co8xsoxJlNYOuC-100" style="edgeStyle=orthogonalEdgeStyle;rounded=0;orthogonalLoop=1;jettySize=auto;html=1;exitX=0.5;exitY=1;exitDx=0;exitDy=0;entryX=0.5;entryY=0;entryDx=0;entryDy=0;" parent="1" source="tFwBW-co8xsoxJlNYOuC-58" target="tFwBW-co8xsoxJlNYOuC-73" edge="1">
          <mxGeometry relative="1" as="geometry" />
        </mxCell>
        <mxCell id="tFwBW-co8xsoxJlNYOuC-58" value="Quantity" style="ellipse;whiteSpace=wrap;html=1;" parent="1" vertex="1">
          <mxGeometry x="250" y="88" width="60" height="30" as="geometry" />
        </mxCell>
        <mxCell id="tFwBW-co8xsoxJlNYOuC-63" style="edgeStyle=orthogonalEdgeStyle;rounded=0;orthogonalLoop=1;jettySize=auto;html=1;exitX=0.5;exitY=0;exitDx=0;exitDy=0;entryX=0.5;entryY=1;entryDx=0;entryDy=0;" parent="1" source="tFwBW-co8xsoxJlNYOuC-62" target="tFwBW-co8xsoxJlNYOuC-3" edge="1">
          <mxGeometry relative="1" as="geometry" />
        </mxCell>
        <mxCell id="tFwBW-co8xsoxJlNYOuC-65" style="edgeStyle=orthogonalEdgeStyle;rounded=0;orthogonalLoop=1;jettySize=auto;html=1;exitX=0.5;exitY=1;exitDx=0;exitDy=0;entryX=0.417;entryY=0;entryDx=0;entryDy=0;entryPerimeter=0;" parent="1" source="tFwBW-co8xsoxJlNYOuC-62" target="tFwBW-co8xsoxJlNYOuC-2" edge="1">
          <mxGeometry relative="1" as="geometry" />
        </mxCell>
        <mxCell id="tFwBW-co8xsoxJlNYOuC-62" value="Has" style="rhombus;whiteSpace=wrap;html=1;" parent="1" vertex="1">
          <mxGeometry x="140" y="260" width="80" height="80" as="geometry" />
        </mxCell>
        <mxCell id="tFwBW-co8xsoxJlNYOuC-66" value="1" style="text;html=1;align=center;verticalAlign=middle;resizable=0;points=[];autosize=1;" parent="1" vertex="1">
          <mxGeometry x="195" y="230" width="20" height="20" as="geometry" />
        </mxCell>
        <mxCell id="tFwBW-co8xsoxJlNYOuC-67" value="1" style="text;html=1;align=center;verticalAlign=middle;resizable=0;points=[];autosize=1;" parent="1" vertex="1">
          <mxGeometry x="200" y="330" width="20" height="20" as="geometry" />
        </mxCell>
        <mxCell id="tFwBW-co8xsoxJlNYOuC-74" style="edgeStyle=orthogonalEdgeStyle;rounded=0;orthogonalLoop=1;jettySize=auto;html=1;exitX=0;exitY=0.5;exitDx=0;exitDy=0;entryX=0.992;entryY=0.65;entryDx=0;entryDy=0;entryPerimeter=0;" parent="1" source="tFwBW-co8xsoxJlNYOuC-73" target="tFwBW-co8xsoxJlNYOuC-3" edge="1">
          <mxGeometry relative="1" as="geometry" />
        </mxCell>
        <mxCell id="tFwBW-co8xsoxJlNYOuC-75" style="edgeStyle=orthogonalEdgeStyle;rounded=0;orthogonalLoop=1;jettySize=auto;html=1;exitX=1;exitY=0.5;exitDx=0;exitDy=0;" parent="1" source="tFwBW-co8xsoxJlNYOuC-73" edge="1">
          <mxGeometry relative="1" as="geometry">
            <mxPoint x="407" y="326" as="targetPoint" />
          </mxGeometry>
        </mxCell>
        <mxCell id="tFwBW-co8xsoxJlNYOuC-73" value="Include" style="rhombus;whiteSpace=wrap;html=1;" parent="1" vertex="1">
          <mxGeometry x="334" y="170" width="80" height="80" as="geometry" />
        </mxCell>
        <mxCell id="tFwBW-co8xsoxJlNYOuC-76" value="M" style="text;html=1;align=center;verticalAlign=middle;resizable=0;points=[];autosize=1;" parent="1" vertex="1">
          <mxGeometry x="255" y="180" width="30" height="20" as="geometry" />
        </mxCell>
        <mxCell id="tFwBW-co8xsoxJlNYOuC-77" value="M" style="text;html=1;align=center;verticalAlign=middle;resizable=0;points=[];autosize=1;" parent="1" vertex="1">
          <mxGeometry x="375" y="280" width="30" height="20" as="geometry" />
        </mxCell>
        <mxCell id="tFwBW-co8xsoxJlNYOuC-79" style="edgeStyle=orthogonalEdgeStyle;rounded=0;orthogonalLoop=1;jettySize=auto;html=1;exitX=0.5;exitY=1;exitDx=0;exitDy=0;entryX=0;entryY=0.25;entryDx=0;entryDy=0;" parent="1" source="tFwBW-co8xsoxJlNYOuC-78" target="tFwBW-co8xsoxJlNYOuC-3" edge="1">
          <mxGeometry relative="1" as="geometry" />
        </mxCell>
        <mxCell id="tFwBW-co8xsoxJlNYOuC-78" value="Total Price" style="ellipse;whiteSpace=wrap;html=1;dashed=1;" parent="1" vertex="1">
          <mxGeometry x="40" y="92" width="60" height="28" as="geometry" />
        </mxCell>
        <mxCell id="tFwBW-co8xsoxJlNYOuC-82" value="" style="line;strokeWidth=2;html=1;" parent="1" vertex="1">
          <mxGeometry x="690" y="150" width="20" height="10" as="geometry" />
        </mxCell>
        <mxCell id="tFwBW-co8xsoxJlNYOuC-83" value="" style="line;strokeWidth=2;html=1;" parent="1" vertex="1">
          <mxGeometry x="345" y="470" width="30" height="10" as="geometry" />
        </mxCell>
        <mxCell id="tFwBW-co8xsoxJlNYOuC-85" value="" style="line;strokeWidth=2;html=1;" parent="1" vertex="1">
          <mxGeometry x="55" y="490" width="30" height="10" as="geometry" />
        </mxCell>
        <mxCell id="tFwBW-co8xsoxJlNYOuC-95" value="" style="line;strokeWidth=2;html=1;dashed=1;" parent="1" vertex="1">
          <mxGeometry x="125" y="113" width="30" height="10" as="geometry" />
        </mxCell>
        <mxCell id="tFwBW-co8xsoxJlNYOuC-96" style="edgeStyle=orthogonalEdgeStyle;rounded=0;orthogonalLoop=1;jettySize=auto;html=1;exitX=0.5;exitY=1;exitDx=0;exitDy=0;entryX=0.158;entryY=0.033;entryDx=0;entryDy=0;entryPerimeter=0;" parent="1" source="tFwBW-co8xsoxJlNYOuC-56" target="tFwBW-co8xsoxJlNYOuC-95" edge="1">
          <mxGeometry relative="1" as="geometry">
            <mxPoint x="139" y="121.99999999999989" as="sourcePoint" />
            <mxPoint x="138.96000000000004" y="171.98000000000002" as="targetPoint" />
          </mxGeometry>
        </mxCell>
        <mxCell id="tFwBW-co8xsoxJlNYOuC-105" style="edgeStyle=orthogonalEdgeStyle;rounded=0;orthogonalLoop=1;jettySize=auto;html=1;exitX=0.5;exitY=1;exitDx=0;exitDy=0;entryX=0.75;entryY=0;entryDx=0;entryDy=0;" parent="1" source="tFwBW-co8xsoxJlNYOuC-104" target="tFwBW-co8xsoxJlNYOuC-3" edge="1">
          <mxGeometry relative="1" as="geometry" />
        </mxCell>
        <mxCell id="tFwBW-co8xsoxJlNYOuC-104" value="ID" style="ellipse;whiteSpace=wrap;html=1;" parent="1" vertex="1">
          <mxGeometry x="175" y="92" width="60" height="30" as="geometry" />
        </mxCell>
        <mxCell id="tFwBW-co8xsoxJlNYOuC-106" value="" style="line;strokeWidth=2;html=1;" parent="1" vertex="1">
          <mxGeometry x="190" y="113" width="30" height="10" as="geometry" />
        </mxCell>
        <mxCell id="4-mFNHQifRkB1SAgegAP-4" style="edgeStyle=orthogonalEdgeStyle;rounded=0;orthogonalLoop=1;jettySize=auto;html=1;exitX=0.5;exitY=1;exitDx=0;exitDy=0;entryX=1;entryY=0;entryDx=0;entryDy=0;" edge="1" parent="1" source="4-mFNHQifRkB1SAgegAP-3" target="tFwBW-co8xsoxJlNYOuC-2">
          <mxGeometry relative="1" as="geometry" />
        </mxCell>
        <mxCell id="4-mFNHQifRkB1SAgegAP-3" value="Interests" style="ellipse;shape=doubleEllipse;margin=3;whiteSpace=wrap;html=1;align=center;" vertex="1" parent="1">
          <mxGeometry x="220" y="300" width="70" height="30" as="geometry" />
        </mxCell>
      </root>
    </mxGraphModel>
  </diagram>
</mxfile>
